<?xml version="1.0" encoding="utf-8"?>
<!-- Generator: Adobe Illustrator 16.0.0, SVG Export Plug-In . SVG Version: 6.00 Build 0)  -->
<!DOCTYPE svg PUBLIC "-//W3C//DTD SVG 1.1//EN" "http://www.w3.org/Graphics/SVG/1.1/DTD/svg11.dtd">
<svg version="1.1" id="Layer_1" xmlns="http://www.w3.org/2000/svg" xmlns:xlink="http://www.w3.org/1999/xlink" x="0px" y="0px"
	 width="170px" height="36px" viewBox="0 0 170 36" enable-background="new 0 0 170 36" xml:space="preserve">
<g>
	<g>
		<g>
			<path fill="#D62324" d="M31.314,27.014h8.948L25.836,2.167L11.41,27.014h8.946c-0.184-0.117-0.348-0.252-0.474-0.406
				c-0.426-0.541-0.569-1.488-0.438-2.85l0.093-0.932c0.12-1.211,0.018-2.072-0.309-2.572c-0.326-0.506-0.895-0.785-1.709-0.844
				l0.157-1.586c0.897,0.065,1.537-0.156,1.92-0.668c0.385-0.509,0.628-1.312,0.738-2.406l0.093-0.943
				c0.129-1.286,0.434-2.168,0.914-2.653h8.986c0.479,0.485,0.785,1.367,0.913,2.653l0.094,0.945
				c0.109,1.094,0.354,1.896,0.738,2.407c0.385,0.511,1.026,0.731,1.92,0.667l0.158,1.588c-0.813,0.057-1.383,0.34-1.709,0.842
				c-0.326,0.502-0.429,1.361-0.308,2.57l0.09,0.934c0.137,1.357-0.009,2.307-0.435,2.848
				C31.662,26.762,31.498,26.896,31.314,27.014z"/>
			<path fill="#FFFFFF" d="M19.884,26.607c-0.423-0.537-0.569-1.488-0.437-2.848l0.093-0.934c0.119-1.209,0.017-2.068-0.309-2.57
				c-0.327-0.506-0.895-0.785-1.709-0.842l0.157-1.588c0.897,0.064,1.537-0.156,1.92-0.667c0.384-0.511,0.629-1.313,0.738-2.407
				l0.093-0.943c0.135-1.354,0.463-2.264,0.987-2.73c0.524-0.469,1.329-0.663,2.413-0.583l0.174,0.014l0.73,0.052l-0.125,1.274
				l-0.352-0.025c-0.196-0.015-0.373-0.015-0.54-0.007c-0.423,0.021-0.745,0.116-0.963,0.287c-0.298,0.24-0.498,0.849-0.594,1.826
				L22.1,14.54c-0.132,1.343-0.411,2.315-0.835,2.922c-0.427,0.611-1.086,1.034-1.983,1.276c0.835,0.375,1.403,0.896,1.702,1.553
				c0.278,0.613,0.362,1.533,0.268,2.732c-0.007,0.094-0.007,0.176-0.018,0.271l-0.062,0.619c-0.098,0.98-0.02,1.609,0.229,1.887
				c0.251,0.281,0.724,0.443,1.427,0.496l0.351,0.025l-0.126,1.273l-0.903-0.068c-0.765-0.055-1.355-0.23-1.792-0.514
				C20.175,26.896,20.011,26.762,19.884,26.607z"/>
		</g>
		<path fill="#FFFFFF" d="M31.789,26.607c0.425-0.537,0.571-1.488,0.435-2.848l-0.092-0.934c-0.119-1.209-0.018-2.068,0.31-2.57
			c0.325-0.506,0.894-0.785,1.708-0.842l-0.157-1.588c-0.897,0.064-1.536-0.156-1.921-0.667c-0.383-0.511-0.628-1.313-0.738-2.407
			l-0.092-0.943c-0.135-1.354-0.464-2.264-0.986-2.73c-0.525-0.469-1.329-0.663-2.415-0.583l-0.174,0.013l-0.731,0.052l0.125,1.274
			l0.349-0.025c0.195-0.015,0.375-0.015,0.541-0.007c0.42,0.021,0.745,0.116,0.959,0.287c0.3,0.24,0.499,0.849,0.596,1.826
			l0.062,0.623c0.131,1.343,0.41,2.315,0.834,2.922c0.424,0.611,1.083,1.034,1.981,1.275c-0.837,0.375-1.403,0.896-1.702,1.553
			c-0.279,0.615-0.361,1.533-0.269,2.732c0.007,0.096,0.007,0.176,0.018,0.271l0.062,0.621c0.096,0.979,0.021,1.607-0.229,1.885
			c-0.25,0.283-0.725,0.443-1.425,0.498l-0.351,0.025l0.124,1.271l0.906-0.068c0.763-0.053,1.354-0.229,1.79-0.514
			C31.498,26.896,31.662,26.762,31.789,26.607z"/>
	</g>
	<path fill="#FFFFFF" d="M53.392,17.877c1.301-0.699,2.122-2.075,2.122-3.602c0-2.136-0.957-4.682-5.519-4.682h-5.612V27.09h5.773
		c4.903,0,5.933-2.705,5.933-4.979C56.09,20.098,55.043,18.472,53.392,17.877z M50.296,17.124h-3.995v-5.741h3.81
		c2.928,0,3.304,1.545,3.304,2.893C53.415,16.166,52.367,17.124,50.296,17.124z M46.301,18.914h3.995
		c2.692,0,3.697,0.863,3.697,3.191c0,1.371-0.39,3.193-3.743,3.193h-3.949V18.914z"/>
	<path fill="#FFFFFF" d="M63.153,12.453c-1.373,0-3.031,0.228-4.288,0.769v1.706c1.115-0.37,2.374-0.709,4.288-0.709
		c2.659,0,3.402,0.907,3.402,2.982v0.798l-3.831,0.227c-4.202,0.368-5.031,2.301-5.031,4.432c0,2.391,1.315,4.58,5.06,4.58
		c1.431,0,2.975-0.486,4.26-1.422l0.428,1.137h1.115v-9.724C68.556,14.386,67.442,12.453,63.153,12.453z M66.555,24.338
		c-1.229,0.709-2.203,1.139-3.744,1.139c-2.717,0-3.088-1.539-3.088-2.818c0-1.363,0.43-2.668,2.859-2.895l3.973-0.371V24.338z"/>
	<path fill="#FFFFFF" d="M76.045,18.793c-2.746-0.227-3.26-0.88-3.26-2.132c0-1.393,0.602-2.446,3.431-2.446
		c1.916,0,3.03,0.284,4.146,0.654v-1.704c-1.259-0.542-2.774-0.713-4.118-0.713c-4.029,0-5.345,2.188-5.345,4.209
		c0,1.96,0.858,3.409,5.001,3.778c2.831,0.227,3.229,1.139,3.229,2.447c0,1.334-0.8,2.588-3.77,2.588
		c-2.031,0-3.401-0.346-4.287-0.654v1.705c0.913,0.369,2.884,0.711,4.258,0.711c4.344,0,5.746-2.189,5.746-4.377
		C81.077,20.527,80.106,19.164,76.045,18.793z"/>
	<path fill="#FFFFFF" d="M89.137,12.453c-4.833,0-6.004,3.299-6.004,7.395c0,4.092,1.17,7.391,6.004,7.391
		c1.4,0,3.119-0.145,4.719-0.854V24.68c-1.403,0.594-2.66,0.797-4.719,0.797c-3.229,0-3.889-2.248-4.002-4.723h9.434v-0.906
		C94.568,15.753,93.997,12.453,89.137,12.453z M85.137,19.135c0.082-2.56,0.688-4.917,4.001-4.917c3.285,0,3.426,2.386,3.426,4.917
		H85.137z"/>
	<path fill="#FFFFFF" d="M103.257,9.363c-4.546,0-6.95,3.104-6.95,8.979c0,5.875,2.404,8.978,6.95,8.978
		c1.786,0,3.32-0.275,4.56-0.814l0.08-0.035v-1.855l-0.188,0.078c-1.622,0.65-2.783,0.885-4.45,0.885
		c-4.105,0-4.967-3.936-4.967-7.235c0-3.301,0.859-7.236,4.967-7.236c1.665,0,2.828,0.232,4.45,0.888l0.188,0.074v-1.852
		l-0.08-0.038C106.577,9.638,105.039,9.363,103.257,9.363z"/>
	<path fill="#FFFFFF" d="M115.309,12.453c-1.377,0-3.033,0.228-4.291,0.769v1.706c1.115-0.37,2.371-0.709,4.291-0.709
		c2.654,0,3.398,0.907,3.398,2.982v0.798l-3.83,0.227c-4.203,0.37-5.031,2.301-5.031,4.434c0,2.391,1.316,4.578,5.059,4.578
		c1.432,0,2.976-0.484,4.261-1.422l0.429,1.137h1.116v-9.724C120.708,14.386,119.591,12.453,115.309,12.453z M118.707,24.338
		c-1.229,0.709-2.199,1.139-3.745,1.139c-2.717,0-3.089-1.539-3.089-2.818c0-1.363,0.43-2.668,2.859-2.895l3.975-0.371V24.338
		L118.707,24.338z"/>
	<path fill="#FFFFFF" d="M137.573,12.453c-1.433,0-2.945,0.599-4.431,1.622c-0.748-1.08-2.09-1.622-4.002-1.622
		c-1.315,0-2.808,0.455-4.177,1.45l-0.431-1.165h-1.112v14.215h2.002V15.068c1.114-0.568,2.056-0.853,3.718-0.853
		c1.627,0,2.717,0.57,2.717,2.416v10.316h1.998V16.631c0-0.542-0.055-1.024-0.172-1.48c1.144-0.597,2.115-0.937,3.89-0.937
		c1.629,0,2.716,0.568,2.716,2.415v10.318h2.003V16.714C142.292,13.874,140.633,12.453,137.573,12.453z"/>
	<g>
		<path fill="#FFFFFF" d="M10.005,33.941H1.5V2.059h8.505v2.402H4.364v27.078h5.641V33.941z"/>
	</g>
	<g>
		<path fill="#FFFFFF" d="M168.5,33.941h-8.508v-2.4h5.611V4.459h-5.611v-2.4h8.508V33.941z"/>
	</g>
	<path fill="#FFFFFF" d="M150.864,12.453c-1.544,0-2.976,0.513-4.457,1.45l-0.431-1.165h-1.115v18.463h2V26.07
		c1.23,0.797,2.688,1.168,4.004,1.168c4.603,0,5.857-3.301,5.857-7.389C156.723,15.753,155.467,12.453,150.864,12.453z
		 M150.864,25.477c-1.028,0-1.802-0.084-2.46-0.285c-0.6-0.199-1.114-0.398-1.543-0.625v-9.441c1.115-0.598,2.146-0.907,4.003-0.907
		c3.429,0,3.858,2.814,3.858,5.631C154.723,22.658,154.293,25.477,150.864,25.477z"/>
</g>
</svg>
