<?xml version="1.0" encoding="utf-8"?>
<!-- Generator: Adobe Illustrator 16.0.0, SVG Export Plug-In . SVG Version: 6.00 Build 0)  -->
<!DOCTYPE svg PUBLIC "-//W3C//DTD SVG 1.1//EN" "http://www.w3.org/Graphics/SVG/1.1/DTD/svg11.dtd">
<svg version="1.1" id="Layer_1" xmlns="http://www.w3.org/2000/svg" xmlns:xlink="http://www.w3.org/1999/xlink" x="0px" y="0px"
	 width="170px" height="36px" viewBox="-49.916 -12.75 170 36" enable-background="new -49.916 -12.75 170 36" xml:space="preserve"
	>
<g>
	<g>
		<g>
			<path fill="#D62324" d="M-18.602,14.204h8.948L-24.08-10.642l-14.426,24.846h8.946c-0.184-0.118-0.348-0.252-0.474-0.407
				c-0.426-0.54-0.569-1.488-0.438-2.849l0.093-0.932c0.12-1.211,0.018-2.072-0.309-2.571c-0.326-0.506-0.895-0.787-1.709-0.845
				l0.157-1.585c0.897,0.065,1.537-0.156,1.92-0.668c0.385-0.509,0.628-1.312,0.738-2.406l0.093-0.943
				c0.129-1.286,0.434-2.168,0.914-2.653h8.986c0.479,0.485,0.785,1.367,0.913,2.653l0.094,0.945
				c0.109,1.094,0.354,1.896,0.738,2.407c0.385,0.511,1.026,0.731,1.92,0.667l0.158,1.587c-0.813,0.057-1.383,0.34-1.709,0.843
				c-0.326,0.501-0.429,1.361-0.308,2.57l0.09,0.933c0.137,1.358-0.009,2.307-0.435,2.848
				C-18.254,13.952-18.418,14.086-18.602,14.204z"/>
			<path fill="#FFFFFF" d="M-30.032,13.798c-0.423-0.538-0.569-1.489-0.437-2.848l0.093-0.933c0.119-1.209,0.017-2.069-0.309-2.57
				c-0.327-0.507-0.895-0.786-1.709-0.843l0.157-1.587c0.897,0.064,1.537-0.156,1.92-0.667c0.384-0.511,0.629-1.313,0.738-2.407
				L-29.486,1c0.135-1.354,0.463-2.264,0.987-2.73c0.524-0.469,1.329-0.663,2.413-0.583l0.174,0.014l0.73,0.052l-0.125,1.274
				l-0.352-0.025c-0.196-0.015-0.373-0.015-0.54-0.007c-0.423,0.021-0.745,0.116-0.963,0.287c-0.298,0.24-0.498,0.849-0.594,1.826
				l-0.06,0.623c-0.132,1.343-0.411,2.315-0.835,2.922c-0.427,0.611-1.086,1.034-1.983,1.275c0.835,0.375,1.403,0.896,1.702,1.553
				c0.278,0.614,0.362,1.533,0.268,2.732c-0.007,0.095-0.007,0.176-0.018,0.272l-0.062,0.62c-0.098,0.979-0.02,1.608,0.229,1.885
				c0.251,0.283,0.724,0.444,1.427,0.498l0.351,0.025l-0.126,1.272l-0.903-0.068c-0.765-0.054-1.355-0.229-1.792-0.514
				C-29.741,14.086-29.905,13.952-30.032,13.798z"/>
		</g>
		<path fill="#FFFFFF" d="M-18.127,13.798c0.425-0.538,0.571-1.489,0.435-2.848l-0.092-0.933c-0.119-1.209-0.018-2.069,0.31-2.57
			c0.325-0.507,0.894-0.786,1.708-0.843l-0.157-1.587c-0.897,0.064-1.536-0.156-1.921-0.667c-0.383-0.511-0.628-1.313-0.738-2.407
			L-18.674,1c-0.135-1.354-0.464-2.264-0.986-2.73c-0.525-0.469-1.329-0.663-2.415-0.583L-22.249-2.3l-0.731,0.052l0.125,1.274
			l0.349-0.025c0.195-0.015,0.375-0.015,0.541-0.007c0.42,0.021,0.745,0.116,0.959,0.287c0.3,0.24,0.499,0.849,0.596,1.826
			l0.062,0.623c0.131,1.343,0.41,2.315,0.834,2.922c0.424,0.611,1.083,1.034,1.981,1.275c-0.837,0.375-1.403,0.896-1.702,1.553
			c-0.279,0.614-0.361,1.533-0.269,2.732c0.007,0.095,0.007,0.176,0.018,0.272l0.062,0.62c0.096,0.979,0.021,1.608-0.229,1.885
			c-0.25,0.283-0.725,0.444-1.425,0.498l-0.351,0.025l0.124,1.272l0.906-0.068c0.763-0.054,1.354-0.229,1.79-0.514
			C-18.418,14.086-18.254,13.952-18.127,13.798z"/>
	</g>
	<g>
		<path fill="#FFFFFF" d="M3.476,5.068c1.301-0.699,2.122-2.075,2.122-3.602c0-2.136-0.957-4.682-5.519-4.682h-5.612V14.28H0.24
			c4.903,0,5.933-2.706,5.933-4.979C6.174,7.287,5.127,5.663,3.476,5.068z M0.38,4.315h-3.995v-5.741h3.81
			c2.928,0,3.304,1.545,3.304,2.893C3.499,3.357,2.451,4.315,0.38,4.315z M-3.615,6.104H0.38c2.692,0,3.697,0.864,3.697,3.192
			c0,1.371-0.39,3.193-3.743,3.193h-3.949V6.104z"/>
		<path fill="#FFFFFF" d="M13.237-0.356c-1.373,0-3.031,0.228-4.288,0.769v1.706c1.115-0.37,2.374-0.709,4.288-0.709
			c2.659,0,3.402,0.907,3.402,2.982v0.798l-3.831,0.227C8.606,5.784,7.777,7.717,7.777,9.849c0,2.39,1.315,4.579,5.06,4.579
			c1.431,0,2.975-0.485,4.26-1.422l0.428,1.137h1.115V4.42C18.64,1.577,17.526-0.356,13.237-0.356z M16.639,11.529
			c-1.229,0.709-2.203,1.137-3.744,1.137c-2.717,0-3.088-1.538-3.088-2.817c0-1.364,0.43-2.669,2.859-2.896l3.973-0.37V11.529z"/>
		<path fill="#FFFFFF" d="M26.129,5.983c-2.746-0.226-3.26-0.879-3.26-2.131c0-1.393,0.602-2.446,3.431-2.446
			c1.916,0,3.03,0.284,4.146,0.654V0.356c-1.259-0.542-2.774-0.713-4.118-0.713c-4.029,0-5.345,2.188-5.345,4.209
			c0,1.96,0.858,3.409,5.001,3.778c2.831,0.226,3.229,1.139,3.229,2.447c0,1.334-0.8,2.588-3.77,2.588
			c-2.031,0-3.401-0.345-4.287-0.655v1.706c0.913,0.369,2.884,0.711,4.258,0.711c4.344,0,5.746-2.189,5.746-4.377
			C31.161,7.717,30.19,6.354,26.129,5.983z"/>
		<path fill="#FFFFFF" d="M39.221-0.356c-4.834,0-6.004,3.299-6.004,7.394c0,4.091,1.17,7.391,6.004,7.391
			c1.4,0,3.119-0.145,4.718-0.854v-1.706c-1.403,0.595-2.659,0.798-4.718,0.798c-3.23,0-3.889-2.249-4.002-4.723h9.433V7.037
			C44.652,2.944,44.081-0.356,39.221-0.356z M35.221,6.324c0.082-2.558,0.688-4.915,4.001-4.915c3.286,0,3.426,2.386,3.426,4.915
			H35.221z"/>
		<path fill="#FFFFFF" d="M53.341-3.446c-4.546,0-6.951,3.104-6.951,8.979c0,5.873,2.405,8.977,6.951,8.977
			c1.786,0,3.32-0.274,4.559-0.814l0.08-0.036v-1.854l-0.188,0.078c-1.622,0.649-2.783,0.884-4.45,0.884
			c-4.106,0-4.967-3.935-4.967-7.234c0-3.301,0.86-7.236,4.967-7.236c1.665,0,2.828,0.232,4.45,0.888l0.188,0.074v-1.852
			l-0.08-0.038C56.661-3.171,55.123-3.446,53.341-3.446z"/>
		<path fill="#FFFFFF" d="M65.392-0.356c-1.377,0-3.032,0.228-4.291,0.769v1.706c1.116-0.37,2.372-0.709,4.291-0.709
			c2.655,0,3.399,0.907,3.399,2.982v0.798l-3.83,0.227c-4.203,0.368-5.031,2.301-5.031,4.433c0,2.39,1.316,4.579,5.059,4.579
			c1.431,0,2.975-0.485,4.26-1.422l0.429,1.137h1.116V4.42C70.792,1.577,69.675-0.356,65.392-0.356z M68.791,11.529
			c-1.229,0.709-2.199,1.137-3.745,1.137c-2.717,0-3.089-1.538-3.089-2.817c0-1.364,0.43-2.669,2.859-2.896l3.975-0.37V11.529z"/>
		<path fill="#FFFFFF" d="M87.657-0.356c-1.432,0-2.945,0.599-4.431,1.622c-0.747-1.08-2.089-1.622-4.002-1.622
			c-1.315,0-2.807,0.455-4.176,1.45l-0.431-1.165h-1.112v14.214h2.002V2.259c1.114-0.568,2.056-0.853,3.717-0.853
			c1.628,0,2.717,0.57,2.717,2.416v10.316h1.999V3.822c0-0.542-0.055-1.024-0.172-1.48c1.143-0.597,2.115-0.937,3.889-0.937
			c1.629,0,2.716,0.568,2.716,2.415v10.318h2.003V3.905C92.376,1.065,90.717-0.356,87.657-0.356z"/>
		<path fill="#FFFFFF" d="M100.948-0.356c-1.544,0-2.975,0.513-4.457,1.45L96.06-0.071h-1.114V21.25h2v-7.99
			c1.23,0.798,2.687,1.168,4.003,1.168c4.603,0,5.858-3.3,5.858-7.388C106.807,2.944,105.551-0.356,100.948-0.356z M100.948,12.666
			c-1.028,0-1.801-0.084-2.459-0.285c-0.6-0.199-1.115-0.398-1.544-0.625V2.316c1.115-0.598,2.146-0.907,4.003-0.907
			c3.429,0,3.858,2.814,3.858,5.631C104.807,9.849,104.377,12.666,100.948,12.666z"/>
	</g>
	<g>
		<path fill="#FFFFFF" d="M-39.911,21.131h-8.505V-10.75h8.505v2.402h-5.641v27.077h5.641V21.131z"/>
	</g>
	<g>
		<path fill="#FFFFFF" d="M118.584,21.131h-8.508v-2.401h5.611V-8.35h-5.611v-2.4h8.508V21.131z"/>
	</g>
</g>
</svg>
