<?xml version="1.0" encoding="utf-8"?>
<!-- Generator: Adobe Illustrator 16.0.0, SVG Export Plug-In . SVG Version: 6.00 Build 0)  -->
<!DOCTYPE svg PUBLIC "-//W3C//DTD SVG 1.1//EN" "http://www.w3.org/Graphics/SVG/1.1/DTD/svg11.dtd">
<svg version="1.1" id="Layer_1" xmlns="http://www.w3.org/2000/svg" xmlns:xlink="http://www.w3.org/1999/xlink" x="0px" y="0px"
	 width="200px" height="200px" viewBox="0 0 200 200" enable-background="new 0 0 200 200" xml:space="preserve">
<g>
	<g>
		<g>
			<g>
				<path fill="#D62324" d="M126.173,130.357h42.744L100.001,10.991L31.084,130.357h42.739c-0.875-0.568-1.656-1.211-2.261-1.971
					c-2.029-2.573-2.723-7.134-2.083-13.668l0.441-4.48c0.575-5.812,0.079-9.938-1.478-12.357c-1.556-2.414-4.275-3.768-8.161-4.052
					l0.744-7.613c4.284,0.312,7.342-0.75,9.177-3.202c1.832-2.449,3.007-6.31,3.526-11.569l0.443-4.521
					c0.607-6.19,2.07-10.427,4.364-12.753h42.927c2.291,2.326,3.75,6.562,4.358,12.753l0.447,4.521
					c0.516,5.259,1.688,9.12,3.527,11.569c1.832,2.453,4.889,3.514,9.177,3.202l0.742,7.613c-3.885,0.284-6.607,1.638-8.16,4.052
					c-1.556,2.419-2.05,6.544-1.478,12.357l0.438,4.48c0.645,6.534-0.051,11.095-2.08,13.668
					C127.831,129.146,127.05,129.789,126.173,130.357z"/>
				<path fill="#FFFFFF" d="M71.562,128.387c-2.029-2.573-2.723-7.134-2.083-13.668l0.441-4.48
					c0.575-5.812,0.079-9.938-1.478-12.357c-1.556-2.414-4.275-3.768-8.161-4.052l0.744-7.613c4.284,0.312,7.342-0.75,9.177-3.202
					c1.832-2.449,3.007-6.31,3.526-11.569l0.443-4.521c0.641-6.504,2.213-10.884,4.714-13.117c2.5-2.252,6.348-3.182,11.528-2.801
					l0.826,0.056l3.492,0.259l-0.602,6.114l-1.671-0.125c-0.94-0.067-1.788-0.067-2.581-0.026c-2.017,0.108-3.565,0.56-4.592,1.38
					c-1.437,1.144-2.387,4.071-2.844,8.773l-0.296,2.99c-0.629,6.44-1.963,11.123-3.99,14.041c-2.024,2.933-5.181,4.965-9.465,6.124
					c3.993,1.796,6.705,4.285,8.131,7.458c1.326,2.95,1.724,7.362,1.276,13.12c-0.037,0.454-0.037,0.841-0.083,1.31l-0.293,2.992
					c-0.46,4.695-0.097,7.718,1.098,9.047c1.189,1.35,3.457,2.14,6.806,2.385l1.668,0.131l-0.599,6.109l-4.314-0.316
					c-3.649-0.263-6.474-1.112-8.561-2.47C72.949,129.789,72.167,129.146,71.562,128.387z"/>
			</g>
			<path fill="#FFFFFF" d="M128.436,128.387c2.029-2.573,2.725-7.134,2.08-13.668l-0.438-4.48
				c-0.572-5.812-0.078-9.938,1.478-12.357c1.553-2.414,4.275-3.768,8.16-4.052l-0.742-7.613c-4.288,0.312-7.345-0.75-9.177-3.202
				c-1.839-2.449-3.012-6.31-3.527-11.569l-0.447-4.521c-0.636-6.504-2.209-10.884-4.712-13.117
				c-2.503-2.252-6.347-3.182-11.526-2.801l-0.828,0.056l-3.49,0.259l0.599,6.114l1.674-0.125c0.937-0.067,1.789-0.067,2.581-0.026
				c2.014,0.108,3.561,0.56,4.589,1.38c1.434,1.144,2.384,4.071,2.849,8.773l0.292,2.99c0.634,6.44,1.96,11.123,3.993,14.041
				c2.023,2.933,5.174,4.965,9.458,6.124c-3.995,1.796-6.703,4.285-8.131,7.458c-1.324,2.95-1.722,7.362-1.274,13.12
				c0.035,0.454,0.035,0.841,0.08,1.31l0.297,2.992c0.458,4.695,0.097,7.718-1.101,9.047c-1.188,1.35-3.457,2.14-6.803,2.385
				l-1.67,0.131l0.599,6.109l4.316-0.316c3.648-0.263,6.472-1.112,8.557-2.47C127.05,129.789,127.831,129.146,128.436,128.387z"/>
		</g>
		<g>
			<g>
				<path fill="#FFFFFF" d="M41.633,168.469c1.64-0.885,2.677-2.634,2.677-4.569c0-2.712-1.208-5.945-6.964-5.945h-7.081v22.206
					h7.285c6.19,0,7.488-3.438,7.488-6.323C45.039,171.286,43.717,169.229,41.633,168.469z M37.726,167.515h-5.043v-7.29h4.81
					c3.695,0,4.169,1.964,4.169,3.675C41.661,166.298,40.337,167.515,37.726,167.515z M32.682,169.785h5.043
					c3.4,0,4.665,1.097,4.665,4.052c0,1.74-0.49,4.055-4.723,4.055h-4.985V169.785z"/>
				<path fill="#FFFFFF" d="M53.953,161.586c-1.732,0-3.824,0.288-5.412,0.975v2.165c1.408-0.469,2.995-0.902,5.412-0.902
					c3.356,0,4.294,1.154,4.294,3.788v1.012l-4.835,0.288c-5.304,0.469-6.35,2.921-6.35,5.629c0,3.029,1.659,5.808,6.386,5.808
					c1.805,0,3.753-0.611,5.376-1.804l0.542,1.443h1.407v-12.339C60.773,164.039,59.366,161.586,53.953,161.586z M58.248,176.667
					c-1.551,0.902-2.779,1.443-4.727,1.443c-3.428,0-3.897-1.948-3.897-3.57c0-1.732,0.541-3.393,3.608-3.682l5.016-0.469V176.667z"
					/>
				<path fill="#FFFFFF" d="M70.225,169.633c-3.463-0.289-4.113-1.119-4.113-2.706c0-1.769,0.757-3.104,4.329-3.104
					c2.417,0,3.825,0.361,5.232,0.829v-2.164c-1.589-0.685-3.5-0.902-5.196-0.902c-5.087,0-6.748,2.778-6.748,5.341
					c0,2.488,1.083,4.328,6.313,4.798c3.574,0.289,4.078,1.442,4.078,3.104c0,1.694-1.01,3.281-4.762,3.281
					c-2.562,0-4.292-0.434-5.412-0.829v2.164c1.155,0.469,3.644,0.902,5.376,0.902c5.483,0,7.252-2.778,7.252-5.557
					C76.576,171.832,75.349,170.102,70.225,169.633z"/>
				<path fill="#FFFFFF" d="M86.748,161.586c-6.097,0-7.576,4.186-7.576,9.38c0,5.196,1.479,9.382,7.576,9.382
					c1.768,0,3.934-0.181,5.954-1.082v-2.165c-1.768,0.758-3.357,1.01-5.954,1.01c-4.077,0-4.907-2.851-5.05-5.989h11.906v-1.155
					C93.604,165.771,92.883,161.586,86.748,161.586z M81.698,170.063c0.106-3.246,0.865-6.24,5.05-6.24c4.15,0,4.33,3.031,4.33,6.24
					H81.698z"/>
				<path fill="#FFFFFF" d="M104.567,157.662c-5.737,0-8.771,3.941-8.771,11.396c0,7.454,3.034,11.394,8.771,11.394
					c2.254,0,4.189-0.348,5.754-1.034l0.104-0.047v-2.352l-0.238,0.098c-2.045,0.83-3.515,1.124-5.62,1.124
					c-5.18,0-6.269-4.996-6.269-9.183c0-4.189,1.088-9.184,6.269-9.184c2.102,0,3.574,0.294,5.62,1.124l0.238,0.098v-2.354
					l-0.104-0.045C108.757,158.013,106.821,157.662,104.567,157.662z"/>
				<path fill="#FFFFFF" d="M119.775,161.586c-1.733,0-3.824,0.288-5.412,0.975v2.165c1.406-0.469,2.994-0.902,5.412-0.902
					c3.355,0,4.294,1.154,4.294,3.788v1.012l-4.835,0.288c-5.304,0.469-6.351,2.921-6.351,5.629c0,3.029,1.659,5.808,6.388,5.808
					c1.804,0,3.752-0.611,5.376-1.804l0.539,1.443h1.41v-12.339C126.597,164.039,125.187,161.586,119.775,161.586z M124.069,176.667
					c-1.551,0.902-2.776,1.443-4.726,1.443c-3.429,0-3.898-1.948-3.898-3.57c0-1.732,0.541-3.393,3.608-3.682l5.016-0.469V176.667z"
					/>
				<path fill="#FFFFFF" d="M147.882,161.586c-1.805,0-3.716,0.759-5.592,2.057c-0.938-1.37-2.636-2.057-5.053-2.057
					c-1.659,0-3.536,0.579-5.267,1.841l-0.543-1.479h-1.406v18.04h2.526v-15.082c1.407-0.721,2.596-1.082,4.689-1.082
					c2.056,0,3.429,0.722,3.429,3.066v13.098h2.525V166.89c0-0.685-0.073-1.298-0.217-1.876c1.444-0.757,2.67-1.19,4.907-1.19
					c2.056,0,3.427,0.722,3.427,3.066v13.098h2.525v-12.988C153.834,163.391,151.741,161.586,147.882,161.586z"/>
			</g>
			<g>
				<path fill="#FFFFFF" d="M21.912,188.853H11.176v-40.46h10.736v3.048h-7.121v34.365h7.121V188.853z"/>
			</g>
			<g>
				<path fill="#FFFFFF" d="M188.824,188.853h-10.737v-3.047h7.078V151.44h-7.078v-3.048h10.737V188.853z"/>
			</g>
		</g>
	</g>
	<path fill="#FFFFFF" d="M164.656,161.586c-1.948,0-3.752,0.649-5.627,1.841l-0.541-1.479h-1.407v23.43h2.524v-6.507
		c1.552,1.01,3.393,1.478,5.051,1.478c5.811,0,7.396-4.186,7.396-9.382C172.052,165.771,170.467,161.586,164.656,161.586z
		 M164.656,178.11c-1.297,0-2.271-0.107-3.104-0.36c-0.754-0.251-1.405-0.504-1.947-0.794v-11.979
		c1.406-0.759,2.706-1.154,5.051-1.154c4.332,0,4.873,3.572,4.873,7.143C169.529,174.54,168.988,178.11,164.656,178.11z"/>
</g>
<g>
</g>
<g>
</g>
<g>
</g>
<g>
</g>
<g>
</g>
<g>
</g>
</svg>
